# xmcd
#
# Track frame offsets: 
#        150
#        8700
#        20117
#        30304
#        40981
#        54312
#        63628
#        75205
#        86002
#        95536
#        107506
#        117937
#        128265
#        138213
#        148440
#        163011
#        173844
#        182580
#        191707
#        203253
#        212098
#        222921
#        233256
#        242268
#        255558
#        266667
#        277789
#        288728
#
# Disc length: 4007 seconds
#
# Revision: 0
# Processed by: cddbd v1.5.2PL0 Copyright (c) Steve Scherf et al.
# Submitted via: ExactAudioCopyFreeDBPlugin 1.0
#
DISCID=770fa51c
DTITLE=Various Artist - Rhythm 'n' Bluesin' By The Bayou: Bop Cat Sto
DTITLE=mp
DYEAR=2019
DGENRE=R&B
TTITLE0=Lester Robertson - Everybody Wants to Know
TTITLE1=Unknown Artist - I Found My Baby (By The Drive-In Show)
TTITLE2=Cookie and The Cupcakes - Crazy Rock
TTITLE3=Jay Nelson and His Jumpers - Raise Some San
TTITLE4=Elizabeth - Tomorrow I'll Be Gone
TTITLE5=Sonny Martin - For Your Precious Love
TTITLE6=Prince Charles - Come On Home
TTITLE7=Blues Boy Palmer and The Bill Parker Band - Mary, Mary (Tk 2)
TTITLE8=Little Miss Peggie and The Bill Parker Band - Come Over Here (Tk
TTITLE8=2)
TTITLE9=Sticks Herman - Please Don't Go
TTITLE10=Big Walter - Never Too Old
TTITLE11=Unknown Artist - Be My Baby Doll (Tk 3)
TTITLE12=King Charles and His Orchestra - Bop Cat Stomp
TTITLE13=Rockin' Sidney - Augustine
TTITLE14=Thaddeus Declouet - Shake It Up (All Night Long)
TTITLE15=Clifton Chenier - It Happened So Fast
TTITLE16=Cookie and The Cupcakes - Rocks On My Pillow
TTITLE17=Big Chenier - Stand By My Side
TTITLE18=Ashton Savoy - I Wants You
TTITLE19=Charles Perrywell and The Fairlanes - I Hear Someone Call My Na
TTITLE19=me
TTITLE20=Big Walter - Crazy Dream
TTITLE21=Margo White - Don't Mess With My Man
TTITLE22=The Yellow Jackets - Bye Bye Baby
TTITLE23=Blues Boy Palmer - My Life for Your Love
TTITLE24=Lester Robertson - Send For Me
TTITLE25=Charles Sheffield with Big Sambo and The Swingsters - Never No 
TTITLE25=More
TTITLE26=Guitar Gable and King Karl - Goodbye Whiskey
TTITLE27=Leroy James and His Combo - Whoa Mule
EXTD=
EXTT0=
EXTT1=
EXTT2=
EXTT3=
EXTT4=
EXTT5=
EXTT6=
EXTT7=
EXTT8=
EXTT9=
EXTT10=
EXTT11=
EXTT12=
EXTT13=
EXTT14=
EXTT15=
EXTT16=
EXTT17=
EXTT18=
EXTT19=
EXTT20=
EXTT21=
EXTT22=
EXTT23=
EXTT24=
EXTT25=
EXTT26=
EXTT27=
PLAYORDER=
